<svg xmlns="http://www.w3.org/2000/svg" version="1.1" xmlns:xlink="http://www.w3.org/1999/xlink" xmlns:svgjs="http://svgjs.dev/svgjs" width="108" height="108" viewBox="0 0 128 128"><g transform="matrix(0.44782608695652176,0,0,0.44782608695652176,35.33913043478261,12.5)"><svg viewBox="0 0 125 225" data-background-color="#ead4d8" preserveAspectRatio="xMidYMid meet" height="230" width="128" xmlns="http://www.w3.org/2000/svg" xmlns:xlink="http://www.w3.org/1999/xlink"><g id="tight-bounds" transform="matrix(1,0,0,1,0,0)"><svg viewBox="0 0 125 225" height="225" width="125"><g><svg></svg></g><g><svg viewBox="0 0 125 225" height="225" width="125"><g><path d="M125 115.278c0-17.876-7.906-33.932-20.392-44.886-10.954-12.486-27.01-20.392-44.886-20.392-32.931 0-59.722 26.792-59.722 59.722 0 17.872 7.903 33.925 20.385 44.879 10.954 12.49 27.012 20.399 44.893 20.399 0.117 0 0.231-0.008 0.347-0.008 0.117 0 0.231 0.008 0.347 0.008 32.6 0 59.028-26.428 59.028-59.028 0-0.117-0.008-0.231-0.008-0.347 0-0.117 0.008-0.231 0.008-0.347zM23.372 144.96c-5.896-8.303-9.403-18.415-9.475-29.335 0.188-28.488 23.239-51.54 51.728-51.728 10.919 0.072 21.033 3.579 29.335 9.475 9.518 9.229 15.457 22.125 15.457 36.35 0 27.953-22.742 50.694-50.695 50.695-14.225 0-27.121-5.939-36.35-15.457zM1.389 109.722c0-32.165 26.168-58.333 58.333-58.333 13.692 0 26.286 4.753 36.25 12.68-8.976-5.4-19.478-8.514-30.694-8.513-32.931 0-59.722 26.792-59.722 59.722 0 11.214 3.112 21.712 8.509 30.687-7.925-9.961-12.676-22.554-12.676-36.243zM65.278 166.667c-14 0-26.704-5.632-35.979-14.743 8.575 6.207 19.087 9.882 30.423 9.882 28.719 0 52.083-23.364 52.084-52.084 0-11.336-3.675-21.849-9.882-30.423 9.111 9.275 14.743 21.979 14.743 35.979 0 28.336-23.053 51.389-51.389 51.389z" fill="#000000" fill-rule="nonzero" stroke="none" stroke-width="1" stroke-linecap="butt" stroke-linejoin="miter" stroke-miterlimit="10" stroke-dasharray="" stroke-dashoffset="0" font-family="none" font-weight="none" font-size="none" text-anchor="none" style="mix-blend-mode: normal" data-fill-palette-color="tertiary"></path></g><g transform="matrix(1,0,0,1,39.325,87.05369601328903)"><svg viewBox="0 0 46.35 50.89260797342193" height="50.89260797342193" width="46.35"><g><svg viewBox="0 0 46.35 50.89260797342193" height="50.89260797342193" width="46.35"><g><svg viewBox="0 0 46.35 50.89260797342193" height="50.89260797342193" width="46.35"><g><svg viewBox="0 0 46.35 50.89260797342193" height="50.89260797342193" width="46.35"><g><svg viewBox="0 0 46.35 50.89260797342193" height="50.89260797342193" width="46.35"><g transform="matrix(1,0,0,1,0,0)"><svg width="46.35" viewBox="1.15 -33.05 30.1 33.05" height="50.89260797342193" data-palette-color="#8d021f"><path d="M13.4 0L1.15 0 1.15-1.05 2.15-1.4Q3.75-1.9 3.75-3.9L3.75-3.9Q3.8-6.75 3.8-9.73 3.8-12.7 3.8-15.8L3.8-15.8 3.8-17.55Q3.8-20.45 3.8-23.35 3.8-26.25 3.75-29.15L3.75-29.15Q3.75-31.2 2.2-31.7L2.2-31.7 1.15-32 1.15-33.05 14.3-33.05Q19.55-33.05 23.35-31.1 27.15-29.15 29.2-25.48 31.25-21.8 31.25-16.6L31.25-16.6Q31.25-11.3 29.03-7.6 26.8-3.9 22.78-1.95 18.75 0 13.4 0L13.4 0ZM11-1.45L11-1.45 13.55-1.45Q17.1-1.45 19.33-2.85 21.55-4.25 22.6-7.58 23.65-10.9 23.65-16.55L23.65-16.55Q23.65-22.2 22.6-25.5 21.55-28.8 19.38-30.2 17.2-31.6 13.75-31.6L13.75-31.6 11-31.6Q10.95-28.15 10.95-24.63 10.95-21.1 10.95-17.55L10.95-17.55 10.95-15.85Q10.95-12.1 10.95-8.53 10.95-4.95 11-1.45Z" opacity="1" transform="matrix(1,0,0,1,0,0)" fill="#000000" class="undefined-text-0" data-fill-palette-color="primary" id="text-0"></path></svg></g></svg></g></svg></g></svg></g><g></g></svg></g></svg></g></svg></g><defs></defs></svg><rect width="125" height="225" fill="none" stroke="none" visibility="hidden"></rect></g></svg></g></svg>